<?xml version="1.0" encoding="UTF-8"?>
<!DOCTYPE svg PUBLIC "-//W3C//DTD SVG 1.1//EN" "http://www.w3.org/Graphics/SVG/1.1/DTD/svg11.dtd">
<svg version="1.1" id="Layer_1" xmlns="http://www.w3.org/2000/svg" width="365px" height="178px">
<path fill="#052049" d="M362.5,78.017V56.332h-82.488v79.903c-0.444-9.361-3.862-16.624-10.335-21.732c-4.476-3.531-11.196-6.354-20.163-8.463l-20.46-4.825c-7.895-1.845-13.057-3.452-15.488-4.824c-2.234-1.214-3.802-2.799-4.717-4.747l-0.001,0.003c-0.007-0.014-0.012-0.027-0.019-0.041v-0.001c-0.608-1.332-0.957-2.886-0.957-4.556c0-3.572,1.227-6.611,3.764-8.999c0-0.003,0.001-0.007,0.001-0.007c0.055-0.054,0.112-0.104,0.167-0.154l0.001-0.001c0.002-0.01,0.004-0.012,0.007-0.006c0.554-0.504,1.162-0.98,1.834-1.423c3.838-2.531,8.974-3.796,15.407-3.796c5.783,0,10.621,0.977,14.514,2.926c5.839,2.954,8.973,7.937,9.406,14.949h23.411c-0.428-12.391-5.031-21.842-13.812-28.355c-8.782-6.512-19.391-9.768-31.826-9.768c-14.893,0-26.183,3.454-33.87,10.361c-4.726,4.248-7.992,9.165-9.813,14.746h-0.009c-0.391,1.202-0.719,2.452-0.977,3.714h-0.002c-2.85,13.445-11.508,22.577-25.982,22.577c-23.176,0-31.881-19.718-31.881-39.274c0-20.536,8.705-40.249,31.881-40.249c12.81,0,23.988,8.869,25.629,20.534h24.979c-3.124-27.11-24.814-42.229-50.607-42.229c-34.633,0-55.648,24.664-57.524,57.156V5.391H76.768v72.955c0,17.417-5.914,25.468-24.317,25.468c-20.869,0-24.155-12.652-24.155-25.468V5.391H2.5v72.955c0,31.877,18.399,47.158,49.951,47.158c31.388,0,50.118-15.443,50.118-47.158v-9.147c1.876,31.644,22.891,56.306,57.524,56.306c14.23,0,26.365-4.59,35.314-12.768c0.555,0.446,1.124,0.881,1.724,1.292c4.641,3.217,13.162,6.196,25.567,8.938l12.622,2.769c7.388,1.582,12.783,3.401,16.188,5.457c3.4,2.109,5.102,5.09,5.102,8.938c0,6.593-3.472,11.101-10.417,13.525c-3.661,1.266-8.427,1.898-14.295,1.898c-9.798,0-16.717-2.399-20.755-7.198c-2.206-2.636-3.688-6.616-4.441-11.942h-23.253c0,12.129,4.396,21.659,13.189,28.592c8.795,6.935,20.866,10.401,36.216,10.401c15.029,0,26.66-3.52,34.895-10.56c7.573-6.474,11.654-14.48,12.263-24.01v32.818h25.799v-48.477h49.129v-20.046h-49.129V78.017H362.5z"/>
</svg>